<svg width="92" height="27" viewBox="0 0 92 27" fill="none" xmlns="http://www.w3.org/2000/svg">
<path fill-rule="evenodd" clip-rule="evenodd" d="M58.8003 0H78.0003C85.4003 0 91.5003 6.1 91.5003 13.5C91.5003 20.9 85.4003 27 78.0003 27H58.8003V0ZM63.5003 2.5L69.0003 2.6H76.9003C83.4003 2.6 88.8003 7.9 88.8003 14.4C88.8003 14.9 88.7003 15.4 88.7003 15.8C88.4003 9.5 83.2003 4.5 76.9003 4.5H69.0003H63.5003H62.4003C61.9003 4.5 61.4003 4.1 61.4003 3.5C61.4003 3 61.8003 2.5 62.4003 2.5H63.5003Z" fill="#F77F00"/>
<path fill-rule="evenodd" clip-rule="evenodd" d="M37.4 0H56.6V27H37.4C34.5 27 31.7 26 29.6 24.5H19.4C18.6 24.5 17.8 23.8 17.8 22.9C17.8 22.1 18.5 21.3 19.4 21.3H26.4H33C33.8 21.3 34.6 20.6 34.6 19.7C34.6 18.9 33.9 18.1 33 18.1H28.8H24.7H14.9C14 18.1 13.3 17.4 13.3 16.5C13.3 15.7 14 14.9 14.9 14.9H23.9H28.7H28.8C29.6 14.9 30.4 14.2 30.4 13.3C30.4 12.5 29.7 11.7 28.8 11.7H25.7H23.9H20.2C19.4 11.7 18.6 11 18.6 10.1C18.6 9.3 19.3 8.5 20.2 8.5H24.6H25.7H38.3C39.1 8.5 39.9 7.8 39.9 6.9C39.9 6.1 39.2 5.3 38.3 5.3H33.9H26.3H20.1C19.3 5.3 18.5 4.6 18.5 3.7C18.5 2.9 19.2 2.2 20.1 2.2H29.4C31.7 1 34.5 0 37.4 0ZM15 21.3H11.6C10.8 21.3 10 22 10 22.9C10 23.7 10.7 24.5 11.6 24.5H14.9C15.8 24.5 16.5 23.8 16.5 22.9C16.5 22.1 15.9 21.3 15 21.3ZM5 15.1H1.6C0.8 15.1 0 15.8 0 16.7C0 17.5 0.7 18.3 1.6 18.3H4.9C5.7 18.3 6.5 17.6 6.5 16.7C6.5 15.8 5.8 15.1 5 15.1ZM10.4 15.1H9.6C8.7 15.1 8 15.8 8 16.7C8 17.5 8.7 18.3 9.6 18.3H10.4C11.3 18.3 12 17.6 12 16.7C12 15.8 11.3 15.1 10.4 15.1ZM15.9 8.8H7.6C6.7 8.8 6 9.5 6 10.4C6 11.3 6.7 12 7.6 12H15.8C16.6 12 17.3 11.3 17.3 10.4C17.4 9.5 16.7 8.8 15.9 8.8ZM15.6 2.6H14.8C13.9 2.6 13.2 3.3 13.2 4.1C13.2 5 13.9 5.7 14.8 5.7H15.6C16.5 5.7 17.2 5 17.2 4.1C17.2 3.2 16.5 2.6 15.6 2.6Z" fill="#022A5D"/>
</svg>
