<svg width="428" height="27" viewBox="0 0 428 27" fill="none" xmlns="http://www.w3.org/2000/svg">
<path d="M106.8 9.1V22.5H105V7.8H108.1L116.6 20.6L125.1 7.8H128V22.5H126.2V9.3L117.5 22.5H115.6L106.8 9.1ZM131.7 22.5V7.8H146.4V9.3H133.6V14.2H145.8V15.7H133.6V20.9H146.4V22.5H131.7ZM159.8 21C160.6 21 161.3 21 161.9 20.9C162.5 20.9 162.9 20.8 163.3 20.6C163.7 20.5 163.9 20.3 164.1 20C164.3 19.7 164.4 19.4 164.5 19C164.6 18.6 164.6 18 164.7 17.4C164.7 16.8 164.7 16 164.7 15.1C164.7 14.2 164.7 13.5 164.7 12.9C164.7 12.3 164.6 11.7 164.5 11.3C164.4 10.9 164.3 10.5 164.1 10.3C163.9 10 163.6 9.8 163.3 9.7C162.9 9.6 162.5 9.5 161.9 9.4C161.3 9.4 160.7 9.3 159.8 9.3H150.6V20.9H159.8V21ZM148.8 22.5V7.8H159.8C160.9 7.8 161.9 7.9 162.6 8C163.4 8.1 164 8.3 164.5 8.6C165 8.9 165.4 9.2 165.7 9.6C166 10 166.2 10.5 166.3 11C166.4 11.5 166.5 12.2 166.5 12.8C166.5 13.5 166.5 14.2 166.5 15.1C166.5 15.9 166.5 16.7 166.5 17.4C166.5 18.1 166.4 18.7 166.3 19.2C166.2 19.7 166 20.2 165.7 20.6C165.4 21 165 21.3 164.5 21.6C164 21.9 163.4 22.1 162.6 22.2C161.8 22.3 160.9 22.4 159.8 22.4H148.8V22.5ZM169.6 7.8H171.4V22.5H169.6V7.8ZM190.3 12.4C190.3 11.6 190.2 11 190.1 10.6C189.9 10.2 189.7 9.8 189.3 9.6C188.9 9.4 188.4 9.2 187.8 9.2C187.2 9.1 186.4 9.1 185.5 9.1H181.2C180.4 9.1 179.7 9.1 179.1 9.2C178.5 9.2 178.1 9.3 177.7 9.5C177.3 9.6 177.1 9.9 176.9 10.1C176.7 10.4 176.6 10.7 176.5 11.2C176.4 11.7 176.4 12.2 176.3 12.9C176.3 13.6 176.3 14.3 176.3 15.3C176.3 16.2 176.3 17 176.3 17.7C176.3 18.4 176.4 18.9 176.5 19.4C176.6 19.9 176.7 20.2 176.9 20.5C177.1 20.8 177.4 21 177.7 21.1C178.1 21.2 178.5 21.3 179.1 21.4C179.7 21.4 180.3 21.5 181.2 21.5H185.5C186.2 21.5 186.8 21.5 187.3 21.4C187.8 21.4 188.3 21.3 188.6 21.2C189 21.1 189.3 21 189.5 20.8C189.7 20.6 189.9 20.4 190 20.1C190.1 19.8 190.2 19.5 190.3 19.1C190.3 18.7 190.4 18.3 190.4 17.8H192.2C192.2 18.4 192.2 19 192.1 19.5C192 20 191.9 20.4 191.7 20.8C191.5 21.2 191.3 21.5 190.9 21.8C190.6 22.1 190.2 22.3 189.7 22.5C189.2 22.7 188.6 22.8 187.9 22.9C187.2 23 186.4 23 185.5 23H181.2C180.1 23 179.1 22.9 178.4 22.8C177.6 22.7 177 22.5 176.5 22.2C176 21.9 175.6 21.6 175.3 21.1C175 20.7 174.8 20.2 174.7 19.6C174.6 19 174.5 18.4 174.5 17.7C174.5 17 174.5 16.2 174.5 15.3C174.5 14.4 174.5 13.6 174.5 12.9C174.5 12.2 174.6 11.5 174.7 11C174.8 10.4 175 9.9 175.3 9.5C175.6 9.1 176 8.7 176.5 8.5C177 8.2 177.6 8 178.4 7.9C179.2 7.8 180.1 7.7 181.2 7.7H185.5C186.4 7.7 187.2 7.7 187.9 7.8C188.6 7.9 189.2 8 189.7 8.2C190.2 8.4 190.6 8.6 190.9 8.9C191.2 9.2 191.5 9.5 191.7 9.8C191.9 10.2 192 10.6 192.1 11C192.2 11.5 192.2 12 192.2 12.5H190.3V12.4ZM206.9 7.5C208 7.5 209 7.6 209.7 7.7C210.5 7.8 211.1 8 211.6 8.3C212.1 8.6 212.5 8.9 212.7 9.3C213 9.7 213.2 10.2 213.3 10.8C213.4 11.4 213.5 12 213.5 12.7C213.5 13.4 213.5 14.2 213.5 15.1C213.5 16 213.5 16.8 213.5 17.5C213.5 18.2 213.4 18.9 213.3 19.4C213.2 20 213 20.5 212.7 20.9C212.4 21.3 212.1 21.7 211.6 22C211.1 22.3 210.5 22.5 209.7 22.6C208.9 22.7 208 22.8 206.9 22.8H201.4C200.3 22.8 199.3 22.7 198.6 22.6C197.8 22.5 197.2 22.3 196.7 22C196.2 21.7 195.8 21.4 195.5 20.9C195.2 20.5 195 20 194.9 19.4C194.8 18.8 194.7 18.2 194.7 17.5C194.7 16.8 194.7 16 194.7 15.1C194.7 14.2 194.7 13.4 194.7 12.7C194.7 12 194.8 11.3 194.9 10.8C195 10.2 195.2 9.7 195.5 9.3C195.8 8.9 196.2 8.5 196.7 8.3C197.2 8 197.8 7.8 198.6 7.7C199.4 7.6 200.3 7.5 201.4 7.5H206.9V7.5ZM206.9 21.3C207.7 21.3 208.4 21.3 208.9 21.2C209.5 21.1 209.9 21.1 210.3 20.9C210.7 20.8 210.9 20.5 211.1 20.3C211.3 20 211.4 19.7 211.5 19.2C211.6 18.7 211.6 18.2 211.7 17.5C211.7 16.8 211.7 16 211.7 15.1C211.7 14.2 211.7 13.4 211.7 12.7C211.7 12 211.6 11.5 211.5 11C211.4 10.5 211.3 10.2 211.1 9.9C210.9 9.6 210.6 9.4 210.3 9.3C209.9 9.2 209.5 9.1 208.9 9C208.3 8.9 207.7 8.9 206.8 8.9H201.3C200.5 8.9 199.8 8.9 199.2 9C198.6 9 198.2 9.1 197.8 9.3C197.4 9.4 197.2 9.7 197 9.9C196.8 10.2 196.7 10.5 196.6 11C196.5 11.5 196.5 12 196.4 12.7C196.4 13.4 196.4 14.1 196.4 15.1C196.4 16 196.4 16.8 196.4 17.5C196.4 18.2 196.5 18.7 196.6 19.2C196.7 19.7 196.8 20 197 20.3C197.2 20.6 197.5 20.8 197.8 20.9C198.2 21 198.6 21.1 199.2 21.2C199.8 21.2 200.4 21.3 201.3 21.3H206.9ZM225.9 14.3C226.9 14.3 227.8 14.3 228.5 14.4C229.2 14.5 229.8 14.6 230.3 14.8C230.8 15 231.2 15.2 231.5 15.4C231.8 15.6 232 15.9 232.2 16.2C232.4 16.5 232.5 16.8 232.5 17.2C232.6 17.6 232.6 18 232.6 18.4C232.6 18.8 232.6 19.3 232.5 19.7C232.4 20.1 232.3 20.4 232.1 20.8C231.9 21.1 231.6 21.4 231.3 21.7C231 22 230.5 22.2 230 22.3C229.5 22.4 228.8 22.6 228 22.7C227.2 22.8 226.4 22.8 225.3 22.8H222.9C222 22.8 221.2 22.8 220.5 22.7C219.8 22.6 219.2 22.5 218.7 22.4C218.2 22.3 217.8 22.1 217.5 21.9C217.2 21.7 216.9 21.4 216.7 21.1C216.5 20.8 216.4 20.5 216.3 20.1C216.2 19.7 216.2 19.3 216.2 18.8H218C218 19.4 218.1 19.8 218.2 20.1C218.4 20.4 218.6 20.7 219 20.8C219.4 21 219.9 21.1 220.5 21.1C221.1 21.1 221.9 21.2 222.8 21.2H225.2C226.3 21.2 227.2 21.1 227.9 21C228.6 20.9 229.2 20.7 229.6 20.5C230 20.3 230.3 20 230.5 19.6C230.7 19.2 230.8 18.8 230.8 18.3C230.8 17.8 230.7 17.4 230.6 17C230.5 16.7 230.3 16.4 229.9 16.2C229.6 16 229.1 15.9 228.4 15.8C227.8 15.7 226.9 15.7 225.9 15.7H223.4C222.3 15.7 221.3 15.7 220.5 15.6C219.7 15.5 219 15.4 218.5 15.2C218 15 217.5 14.8 217.2 14.6C216.9 14.4 216.6 14.1 216.5 13.8C216.3 13.5 216.2 13.2 216.2 12.8C216.1 12.4 216.1 12 216.1 11.6C216.1 11.2 216.1 10.7 216.2 10.4C216.3 10 216.4 9.7 216.6 9.4C216.8 9.1 217.1 8.8 217.5 8.6C217.9 8.4 218.4 8.2 218.9 8C219.5 7.8 220.2 7.7 221 7.6C221.8 7.5 222.8 7.5 223.9 7.5H225.7C226.6 7.5 227.4 7.5 228.1 7.6C228.8 7.7 229.4 7.8 229.9 7.9C230.4 8 230.8 8.2 231.1 8.4C231.4 8.6 231.7 8.9 231.9 9.2C232.1 9.5 232.2 9.8 232.3 10.2C232.4 10.6 232.4 11 232.4 11.5H230.6C230.6 10.9 230.5 10.5 230.4 10.2C230.2 9.9 230 9.6 229.6 9.5C229.2 9.3 228.7 9.2 228.1 9.2C227.5 9.2 226.7 9.1 225.8 9.1H224C222.8 9.1 221.8 9.1 221 9.2C220.2 9.3 219.6 9.4 219.1 9.6C218.6 9.8 218.3 10.1 218.1 10.4C217.9 10.7 217.8 11.2 217.8 11.7C217.8 12 217.8 12.3 217.9 12.5C217.9 12.7 218 13 218.2 13.2C218.3 13.4 218.5 13.5 218.8 13.7C219 13.8 219.4 13.9 219.8 14C220.2 14.1 220.7 14.1 221.3 14.2C221.9 14.2 222.6 14.2 223.4 14.2H225.9V14.3ZM252.7 7.8V15.1C252.7 16 252.7 16.8 252.7 17.5C252.7 18.2 252.6 18.9 252.5 19.4C252.4 20 252.2 20.5 251.9 20.9C251.6 21.3 251.3 21.7 250.8 22C250.3 22.3 249.7 22.5 248.9 22.6C248.1 22.7 247.2 22.8 246.1 22.8H241.8C240.7 22.8 239.7 22.7 239 22.6C238.2 22.5 237.6 22.3 237.1 22C236.6 21.7 236.2 21.4 235.9 20.9C235.6 20.5 235.4 20 235.3 19.4C235.2 18.8 235.1 18.2 235.1 17.5C235.1 16.8 235.1 16 235.1 15.1V7.8H236.9V15.1C236.9 16 236.9 16.8 236.9 17.5C236.9 18.2 237 18.7 237.1 19.2C237.2 19.7 237.3 20 237.5 20.3C237.7 20.6 238 20.8 238.3 20.9C238.7 21 239.1 21.1 239.7 21.2C240.3 21.2 240.9 21.3 241.8 21.3H246.1C246.9 21.3 247.6 21.3 248.2 21.2C248.8 21.1 249.2 21.1 249.6 20.9C250 20.8 250.2 20.5 250.4 20.3C250.6 20 250.7 19.7 250.8 19.2C250.9 18.7 250.9 18.2 251 17.5C251 16.8 251 16 251 15.1V7.8H252.7ZM272.5 22.5H270.7V19.8C270.7 19.4 270.7 19 270.7 18.7C270.7 18.4 270.6 18.1 270.5 17.9C270.4 17.7 270.3 17.5 270.1 17.3C269.9 17.2 269.6 17.1 269.3 17C268.9 16.9 268.5 16.9 267.9 16.8C267.3 16.8 266.7 16.8 265.8 16.8H257.6V22.5H255.8V7.8H266.2C267.3 7.8 268.3 7.8 269 7.9C269.8 8 270.4 8.1 270.9 8.3C271.4 8.5 271.8 8.7 272.1 8.9C272.4 9.1 272.6 9.4 272.7 9.7C272.8 10 272.9 10.4 272.9 10.8C272.9 11.2 272.9 11.6 272.9 12.1C272.9 12.7 272.9 13.2 272.8 13.7C272.7 14.2 272.6 14.5 272.4 14.9C272.2 15.2 271.9 15.5 271.6 15.7C271.3 15.9 270.8 16 270.3 16.1C270.8 16.2 271.2 16.3 271.5 16.5C271.8 16.7 272 16.9 272.2 17.2C272.4 17.5 272.5 17.9 272.5 18.3C272.6 18.7 272.6 19.2 272.6 19.7V22.5H272.5ZM257.6 15.2H266.1C266.9 15.2 267.6 15.2 268.2 15.2C268.8 15.2 269.2 15.1 269.6 15C270 14.9 270.2 14.8 270.4 14.7C270.6 14.6 270.7 14.4 270.8 14.1C270.9 13.9 270.9 13.6 271 13.3C271 13 271 12.6 271 12.1C271 11.7 271 11.3 271 11C271 10.7 270.9 10.4 270.8 10.2C270.7 10 270.6 9.8 270.4 9.7C270.2 9.6 269.9 9.5 269.6 9.4C269.2 9.3 268.8 9.3 268.2 9.3C267.6 9.3 267 9.3 266.1 9.3H257.6V15.2ZM290.9 7.8H293L285.1 22.5H282.6L274.7 7.8H276.8L283.8 21.2L290.9 7.8ZM295.5 22.5V7.8H310.2V9.3H297.4V14.2H309.6V15.7H297.4V20.9H310.2V22.5H295.5ZM312.6 7.8H314.4V22.5H312.6V7.8ZM318.1 22.5V7.8H319.9V20.9H331.5V22.5H318.1ZM333.9 22.5V7.8H335.7V20.9H347.3V22.5H333.9ZM364.2 19.1H352.6L350.8 22.5H348.6L357.2 7.8H359.6L368.2 22.5H366.1L364.2 19.1ZM363.3 17.6L358.4 9L353.5 17.6H363.3ZM372.4 22.5H370.6V7.8H373.8L387.2 20.6V7.8H389V22.5H386.6L372.4 9.4V22.5ZM408 12.4C408 11.6 407.9 11 407.8 10.6C407.6 10.2 407.4 9.8 407 9.6C406.6 9.4 406.1 9.2 405.5 9.2C404.9 9.1 404.1 9.1 403.2 9.1H398.9C398.1 9.1 397.4 9.1 396.8 9.2C396.2 9.2 395.8 9.3 395.4 9.5C395 9.6 394.8 9.9 394.6 10.1C394.4 10.4 394.3 10.7 394.2 11.2C394.1 11.7 394.1 12.2 394 12.9C394 13.6 394 14.3 394 15.3C394 16.2 394 17 394 17.7C394 18.4 394.1 18.9 394.2 19.4C394.3 19.9 394.4 20.2 394.6 20.5C394.8 20.8 395.1 21 395.4 21.1C395.7 21.2 396.2 21.3 396.8 21.4C397.4 21.4 398 21.5 398.9 21.5H403.2C403.9 21.5 404.5 21.5 405 21.4C405.5 21.4 406 21.3 406.3 21.2C406.7 21.1 407 21 407.2 20.8C407.4 20.6 407.6 20.4 407.7 20.1C407.8 19.8 407.9 19.5 408 19.1C408 18.7 408.1 18.3 408.1 17.8H409.9C409.9 18.4 409.9 19 409.8 19.5C409.7 20 409.6 20.4 409.4 20.8C409.2 21.2 409 21.5 408.6 21.8C408.3 22.1 407.9 22.3 407.4 22.5C406.9 22.7 406.3 22.8 405.6 22.9C404.9 23 404.1 23 403.2 23H398.9C397.8 23 396.8 22.9 396.1 22.8C395.3 22.7 394.7 22.5 394.2 22.2C393.7 21.9 393.3 21.6 393 21.1C392.7 20.7 392.5 20.2 392.4 19.6C392.3 19 392.2 18.4 392.2 17.7C392.2 17 392.2 16.2 392.2 15.3C392.2 14.4 392.2 13.6 392.2 12.9C392.2 12.2 392.3 11.5 392.4 11C392.5 10.4 392.7 9.9 393 9.5C393.3 9.1 393.7 8.7 394.2 8.5C394.7 8.2 395.3 8 396.1 7.9C396.9 7.8 397.8 7.7 398.9 7.7H403.2C404.1 7.7 404.9 7.7 405.6 7.8C406.3 7.9 406.9 8 407.4 8.2C407.9 8.4 408.3 8.6 408.6 8.9C408.9 9.2 409.2 9.5 409.4 9.8C409.6 10.2 409.7 10.6 409.8 11C409.9 11.5 409.9 12 409.9 12.5H408V12.4ZM412.9 22.5V7.8H427.6V9.3H414.8V14.2H427V15.7H414.8V20.9H427.6V22.5H412.9Z" fill="#022A5D"/>
<path fill-rule="evenodd" clip-rule="evenodd" d="M58.8003 0H78.0003C85.4003 0 91.5003 6.1 91.5003 13.5C91.5003 20.9 85.4003 27 78.0003 27H58.8003V0ZM63.5003 2.5L69.0003 2.6H76.9003C83.4003 2.6 88.8003 7.9 88.8003 14.4C88.8003 14.9 88.7003 15.4 88.7003 15.8C88.4003 9.5 83.2003 4.5 76.9003 4.5H69.0003H63.5003H62.4003C61.9003 4.5 61.4003 4.1 61.4003 3.5C61.4003 3 61.8003 2.5 62.4003 2.5H63.5003Z" fill="#F77F00"/>
<path fill-rule="evenodd" clip-rule="evenodd" d="M37.4 0H56.6V27H37.4C34.5 27 31.7 26 29.6 24.5H19.4C18.6 24.5 17.8 23.8 17.8 22.9C17.8 22.1 18.5 21.3 19.4 21.3H26.4H33C33.8 21.3 34.6 20.6 34.6 19.7C34.6 18.9 33.9 18.1 33 18.1H28.8H24.7H14.9C14 18.1 13.3 17.4 13.3 16.5C13.3 15.7 14 14.9 14.9 14.9H23.9H28.7H28.8C29.6 14.9 30.4 14.2 30.4 13.3C30.4 12.5 29.7 11.7 28.8 11.7H25.7H23.9H20.2C19.4 11.7 18.6 11 18.6 10.1C18.6 9.3 19.3 8.5 20.2 8.5H24.6H25.7H38.3C39.1 8.5 39.9 7.8 39.9 6.9C39.9 6.1 39.2 5.3 38.3 5.3H33.9H26.3H20.1C19.3 5.3 18.5 4.6 18.5 3.7C18.5 2.9 19.2 2.2 20.1 2.2H29.4C31.7 1 34.5 0 37.4 0ZM15 21.3H11.6C10.8 21.3 10 22 10 22.9C10 23.7 10.7 24.5 11.6 24.5H14.9C15.8 24.5 16.5 23.8 16.5 22.9C16.5 22.1 15.9 21.3 15 21.3ZM5 15.1H1.6C0.8 15.1 0 15.8 0 16.7C0 17.5 0.7 18.3 1.6 18.3H4.9C5.7 18.3 6.5 17.6 6.5 16.7C6.5 15.8 5.8 15.1 5 15.1ZM10.4 15.1H9.6C8.7 15.1 8 15.8 8 16.7C8 17.5 8.7 18.3 9.6 18.3H10.4C11.3 18.3 12 17.6 12 16.7C12 15.8 11.3 15.1 10.4 15.1ZM15.9 8.8H7.6C6.7 8.8 6 9.5 6 10.4C6 11.3 6.7 12 7.6 12H15.8C16.6 12 17.3 11.3 17.3 10.4C17.4 9.5 16.7 8.8 15.9 8.8ZM15.6 2.6H14.8C13.9 2.6 13.2 3.3 13.2 4.1C13.2 5 13.9 5.7 14.8 5.7H15.6C16.5 5.7 17.2 5 17.2 4.1C17.2 3.2 16.5 2.6 15.6 2.6Z" fill="#022A5D"/>
</svg>
